<svg xmlns="http://www.w3.org/2000/svg" width="1120" height="160" viewBox="0 0 1120 160">
  <defs>
    <radialGradient id="tile" cx="50%" cy="45%" r="70%">
      <stop offset="0" stop-color="#5b4b2c"/>
      <stop offset="1" stop-color="#19140b"/>
    </radialGradient>
    <linearGradient id="gold" x1="0" x2="0" y1="0" y2="1">
      <stop offset="0" stop-color="#e0bf73"/>
      <stop offset="1" stop-color="#8a6026"/>
    </linearGradient>
    <linearGradient id="iron" x1="0" x2="0" y1="0" y2="1">
      <stop offset="0" stop-color="#d8d8cf"/>
      <stop offset="1" stop-color="#6f736c"/>
    </linearGradient>
    <linearGradient id="fire" x1="0" x2="0" y1="0" y2="1">
      <stop offset="0" stop-color="#ffd66a"/>
      <stop offset="0.5" stop-color="#e66422"/>
      <stop offset="1" stop-color="#5a1208"/>
    </linearGradient>
    <g id="frame">
      <rect x="10" y="10" width="140" height="140" rx="6" fill="url(#tile)" stroke="#8b6b36" stroke-width="4"/>
      <rect x="18" y="18" width="124" height="124" rx="3" fill="none" stroke="#2a1d0c" stroke-width="4"/>
      <rect x="24" y="24" width="112" height="112" rx="2" fill="none" stroke="#9b7d49" stroke-width="1.5" opacity=".8"/>
    </g>
  </defs>

  <g transform="translate(0 0)">
    <use href="#frame"/>
    <path d="M39 82c9-34 34-50 63-45 17 3 30 12 39 24-24-12-50-11-70 3-13 9-22 21-32 18z" fill="#9a2020" stroke="#4a0c0a" stroke-width="5"/>
    <path d="M48 76c7 30 28 49 57 45 18-2 30-11 39-23-24 11-49 10-70-2-13-8-21-20-26-20z" fill="#8d1d1d" stroke="#4a0c0a" stroke-width="5"/>
    <path d="M62 74c7-22 24-36 44-36 19 0 34 13 38 31-21-8-43-8-66 4l-1 35c-13-5-19-17-15-34z" fill="url(#iron)" stroke="#21160b" stroke-width="4"/>
    <path d="M84 41c-3 20-5 40-5 62" stroke="#38230f" stroke-width="4"/>
  </g>

  <g transform="translate(160 0)">
    <use href="#frame"/>
    <path d="M51 82c4-26 20-41 44-42 18 0 32 9 39 25-20-8-40-7-58 4l-3 40c-17-3-25-13-22-27z" fill="url(#gold)" stroke="#2b1c0a" stroke-width="4"/>
    <path d="M83 39c19-22 36-25 55-19-10 13-24 25-42 34" fill="#d8b765" stroke="#2b1c0a" stroke-width="3"/>
    <path d="M98 58c19-15 31-18 43-16-7 13-19 24-36 32" fill="#cba75b" stroke="#2b1c0a" stroke-width="3"/>
    <path d="M41 118c34-21 74-22 107 0" stroke="#806534" stroke-width="4" fill="none"/>
    <path d="M36 111l102-42M42 92l84 34M60 77l55 55" stroke="#2e2618" stroke-width="3"/>
  </g>

  <g transform="translate(320 0)">
    <use href="#frame"/>
    <path d="M36 116c5-32 13-30 20-60 7 25 17 29 19 60z" fill="url(#fire)"/>
    <path d="M66 121c4-36 14-40 24-77 9 33 25 40 30 78z" fill="url(#fire)"/>
    <path d="M103 119c2-28 12-31 19-58 8 22 17 30 22 58z" fill="url(#fire)"/>
    <path d="M43 121h101" stroke="#2b1608" stroke-width="5"/>
    <path d="M55 47c21 8 35 3 51-16-1 18-9 32-29 42 21 0 36 6 48 20-29 0-50-7-70-46z" fill="url(#iron)" stroke="#20170d" stroke-width="4"/>
  </g>

  <g transform="translate(480 0)">
    <use href="#frame"/>
    <path d="M42 99c21-24 54-33 91-22l-7 26c-27-12-54-7-84 13z" fill="#785130" stroke="#21140a" stroke-width="4"/>
    <path d="M69 73c8-22 31-26 46-10-16 7-27 20-30 42" fill="#a2794a" stroke="#21140a" stroke-width="4"/>
    <circle cx="65" cy="64" r="11" fill="#a2794a" stroke="#21140a" stroke-width="4"/>
    <path d="M66 70l-12 33m29-48l5-18m5 18l13-13" stroke="#21140a" stroke-width="5"/>
    <path d="M92 67l17 22m-43-3l31 9" stroke="#d1b77a" stroke-width="3"/>
  </g>

  <g transform="translate(640 0)">
    <use href="#frame"/>
    <path d="M28 103c22 12 39 7 54-11 16-19 32-20 52 1-15 1-22 7-30 16-18 20-47 22-76-6z" fill="#4aa0c8" stroke="#16354a" stroke-width="4"/>
    <path d="M33 77c18 11 35 7 49-11 12-15 25-18 43-4-16 3-23 12-30 21-17 21-39 22-62-6z" fill="#9ed8e8" stroke="#2b6174" stroke-width="3"/>
    <path d="M43 119l75-60M55 111l62 13M79 95l42 18" stroke="#7b4725" stroke-width="5"/>
    <path d="M115 63l20 10-7 18-21-11z" fill="#9a1d14" stroke="#311109" stroke-width="3"/>
  </g>

  <g transform="translate(800 0)">
    <use href="#frame"/>
    <path d="M29 111l31-48 20 33 24-48 29 63z" fill="url(#iron)" stroke="#22251f" stroke-width="4"/>
    <path d="M53 102l22-35 16 27 18-33 24 41z" fill="#f3f3e7" stroke="#72766e" stroke-width="3"/>
    <path d="M61 113c7-16 24-25 43-25s34 9 41 25" fill="none" stroke="#9b9c8c" stroke-width="5"/>
    <rect x="70" y="97" width="30" height="22" fill="#8e7a51" stroke="#21170c" stroke-width="3"/>
    <rect x="100" y="102" width="22" height="17" fill="#7a6845" stroke="#21170c" stroke-width="3"/>
  </g>

  <g transform="translate(960 0)">
    <use href="#frame"/>
    <path d="M35 48c35 37 58 60 91 82M124 47C89 84 65 105 33 130" stroke="#b9b1a0" stroke-width="15" stroke-linecap="round"/>
    <path d="M35 48c35 37 58 60 91 82M124 47C89 84 65 105 33 130" stroke="#3c3832" stroke-width="7" stroke-linecap="round"/>
    <path d="M39 107c3-22 10-24 15-43 7 18 18 22 20 43zM105 103c2-20 10-23 15-40 8 18 16 23 19 40z" fill="url(#fire)"/>
    <path d="M48 113h35M100 111h40" stroke="#241508" stroke-width="5"/>
  </g>
</svg>
